<?xml version="1.0" encoding="UTF-8" standalone="no"?>
<!-- Created with Inkscape (http://www.inkscape.org/) -->

<svg
   xmlns:dc="http://purl.org/dc/elements/1.1/"
   xmlns:cc="http://creativecommons.org/ns#"
   xmlns:rdf="http://www.w3.org/1999/02/22-rdf-syntax-ns#"
   xmlns:svg="http://www.w3.org/2000/svg"
   xmlns="http://www.w3.org/2000/svg"
   xmlns:sodipodi="http://sodipodi.sourceforge.net/DTD/sodipodi-0.dtd"
   xmlns:inkscape="http://www.inkscape.org/namespaces/inkscape"
   width="250mm"
   height="250mm"
   viewBox="0 0 250 250"
   version="1.1"
   id="svg2362"
   inkscape:version="0.92.4 (5da689c313, 2019-01-14)"
   sodipodi:docname="Settings.svg">
  <defs
     id="defs2356" />
  <sodipodi:namedview
     id="base"
     pagecolor="#ffffff"
     bordercolor="#666666"
     borderopacity="1.0"
     inkscape:pageopacity="0.0"
     inkscape:pageshadow="2"
     inkscape:zoom="0.7"
     inkscape:cx="363.49644"
     inkscape:cy="495.64126"
     inkscape:document-units="mm"
     inkscape:current-layer="layer1"
     showgrid="true"
     inkscape:window-width="1920"
     inkscape:window-height="1017"
     inkscape:window-x="-8"
     inkscape:window-y="-8"
     inkscape:window-maximized="1">
    <inkscape:grid
       type="xygrid"
       id="grid2907" />
  </sodipodi:namedview>
  <metadata
     id="metadata2359">
    <rdf:RDF>
      <cc:Work
         rdf:about="">
        <dc:format>image/svg+xml</dc:format>
        <dc:type
           rdf:resource="http://purl.org/dc/dcmitype/StillImage" />
        <dc:title></dc:title>
      </cc:Work>
    </rdf:RDF>
  </metadata>
  <g
     inkscape:label="Layer 1"
     inkscape:groupmode="layer"
     id="layer1"
     transform="translate(0,-47)">
    <path
       style="fill:#ffffff;fill-opacity:1;stroke:#000000;stroke-width:5.85636902;stroke-linecap:round;stroke-linejoin:round;stroke-miterlimit:4;stroke-dasharray:none;stroke-dashoffset:0;stroke-opacity:1;paint-order:markers fill stroke"
       d="m 125.41211,65.788019 c -6.96638,0.132679 -12.94896,5.578392 -15.06936,12.001155 -2.06239,4.564249 -2.43056,10.02191 -5.98917,13.811168 -1.34124,0.962556 -3.03399,1.406951 -4.539127,2.105645 -6.084145,2.38937 -12.270675,4.668355 -17.796231,8.226513 -22.083283,13.57858 -36.941554,38.14746 -38.724527,64.00844 -1.730895,23.02503 7.141326,46.43375 23.186399,62.95046 13.497076,14.06261 32.313544,22.67093 51.692406,24.27064 16.40744,1.46004 33.24891,-2.1564 47.5033,-10.44434 18.47575,-10.60664 32.61623,-28.59205 38.26744,-49.16103 5.79329,-20.61566 2.92235,-43.41715 -7.53902,-62.07297 -7.64916,-13.8855 -19.69759,-25.10933 -33.66562,-32.491094 -4.597,-2.492745 -9.4465,-4.480194 -14.33605,-6.30661 -3.29601,-1.777679 -4.31594,-5.686278 -5.4113,-8.98278 -1.73263,-5.517177 -3.77339,-11.454118 -8.58938,-15.059117 -2.57361,-1.907222 -5.79217,-2.90329 -8.98976,-2.85608 z"
       id="path2909"
       inkscape:connector-curvature="0" />
    <path
       id="path2912"
       d="m 199.83018,98.376042 c -5.01979,-4.832136 -13.10082,-5.211758 -19.14175,-2.169528 -4.68574,1.769068 -8.80522,5.367866 -14.00095,5.530956 -1.62903,-0.26777 -3.14022,-1.15049 -4.69856,-1.72073 -5.99168,-2.612585 -11.97771,-5.375616 -18.40088,-6.766768 -25.21674,-6.013733 -53.09593,0.852705 -72.643156,17.878398 -17.505083,15.05723 -27.78394,37.8833 -28.117437,60.90796 -0.399893,19.48764 6.818357,38.87989 19.390116,53.71398 10.569408,12.63422 25.035335,21.98573 40.975157,26.20464 20.56435,5.5643 43.28078,2.84553 61.82126,-7.70293 18.67395,-10.481 32.76697,-28.63415 38.56132,-49.22311 4.40976,-15.2273 3.82668,-31.68327 -0.83051,-46.77986 -1.48792,-5.01322 -3.51169,-9.84767 -5.67766,-14.59658 -1.07362,-3.58764 0.96898,-7.07263 2.52542,-10.17815 2.67608,-5.12639 5.4311,-10.76747 4.5748,-16.72201 -0.47121,-3.16843 -2.04275,-6.14862 -4.33717,-8.376268 z"
       style="fill:#ffffff;fill-opacity:1;stroke:#000000;stroke-width:5.85636902;stroke-linecap:round;stroke-linejoin:round;stroke-miterlimit:4;stroke-dasharray:none;stroke-dashoffset:0;stroke-opacity:1;paint-order:markers fill stroke"
       inkscape:connector-curvature="0" />
    <path
       inkscape:connector-curvature="0"
       style="fill:#ffffff;fill-opacity:1;stroke:#000000;stroke-width:5.85636902;stroke-linecap:round;stroke-linejoin:round;stroke-miterlimit:4;stroke-dasharray:none;stroke-dashoffset:0;stroke-opacity:1;paint-order:markers fill stroke"
       d="m 230.54959,173.34245 c -0.13268,-6.96637 -5.5784,-12.94895 -12.00117,-15.06935 -4.56424,-2.06239 -10.0219,-2.43056 -13.81115,-5.98918 -0.96256,-1.34124 -1.40696,-3.03399 -2.10565,-4.53912 -2.38937,-6.08415 -4.66837,-12.27067 -8.22654,-17.79623 C 180.8265,107.86529 156.25763,93.007052 130.39666,91.224074 107.37163,89.49318 83.962908,98.365392 67.446197,114.41045 c -14.06261,13.49708 -22.670928,32.31354 -24.270637,51.69241 -1.460043,16.40744 2.156396,33.24891 10.444332,47.50329 10.606637,18.47574 28.59204,32.61622 49.161028,38.26743 20.61566,5.79329 43.41715,2.92235 62.07296,-7.53902 13.8855,-7.64916 25.10933,-19.69758 32.4911,-33.66562 2.49276,-4.597 4.48022,-9.44649 6.30663,-14.33605 1.77768,-3.29601 5.68628,-4.31593 8.98278,-5.4113 5.51718,-1.73263 11.45412,-3.77338 15.05912,-8.58937 1.90722,-2.57361 2.90329,-5.79217 2.85608,-8.98977 z"
       id="path2914" />
    <path
       id="path2916"
       d="m 198.62393,247.59268 c 4.83215,-5.01979 5.21177,-13.10082 2.16954,-19.14175 -1.76908,-4.68574 -5.36789,-8.80522 -5.53097,-14.00095 0.26776,-1.62903 1.15048,-3.14023 1.72072,-4.69856 2.6126,-5.99168 5.37564,-11.97771 6.76679,-18.40088 6.01373,-25.21674 -0.8527,-53.09593 -17.87842,-72.64315 -15.05722,-17.50509 -37.8833,-27.783925 -60.90795,-28.117426 -19.48765,-0.39989 -38.879894,6.818351 -53.71399,19.390106 -12.634218,10.5694 -21.985727,25.03533 -26.20464,40.97515 -5.564296,20.56435 -2.845525,43.28078 7.702937,61.82126 10.480998,18.67395 28.634148,32.76697 49.223103,38.56132 15.2273,4.40976 31.68327,3.82668 46.77987,-0.83051 5.01321,-1.48793 9.84767,-3.51169 14.59657,-5.67766 3.58764,-1.07362 7.07263,0.96898 10.17816,2.52542 5.12639,2.67608 10.76746,5.4311 16.722,4.5748 3.16843,-0.47121 6.14862,-2.04275 8.37628,-4.33717 z"
       style="fill:#ffffff;fill-opacity:1;stroke:#000000;stroke-width:5.85636902;stroke-linecap:round;stroke-linejoin:round;stroke-miterlimit:4;stroke-dasharray:none;stroke-dashoffset:0;stroke-opacity:1;paint-order:markers fill stroke"
       inkscape:connector-curvature="0" />
    <path
       inkscape:connector-curvature="0"
       style="fill:#ffffff;fill-opacity:1;stroke:#000000;stroke-width:5.85636902;stroke-linecap:round;stroke-linejoin:round;stroke-miterlimit:4;stroke-dasharray:none;stroke-dashoffset:0;stroke-opacity:1;paint-order:markers fill stroke"
       d="m 123.65751,278.31209 c 6.96637,-0.13268 12.94895,-5.5784 15.06936,-12.00117 2.06239,-4.56424 2.43055,-10.0219 5.98918,-13.81115 1.34123,-0.96256 3.03399,-1.40696 4.53911,-2.10565 6.08415,-2.38937 12.27067,-4.66837 17.79623,-8.22654 22.08328,-13.57858 36.94154,-38.14745 38.72451,-64.00842 1.73091,-23.02503 -7.14132,-46.43375 -23.18638,-62.95046 -13.49709,-14.06262 -32.31355,-22.670911 -51.69242,-24.270617 -16.40744,-1.460047 -33.248908,2.156395 -47.503285,10.444307 -18.475743,10.60664 -32.616223,28.59204 -38.267433,49.16103 -5.793292,20.61566 -2.922347,43.41715 7.539019,62.07296 7.649156,13.8855 19.697584,25.10933 33.665623,32.49111 4.597,2.49275 9.446494,4.48021 14.336046,6.30662 3.29601,1.77768 4.31593,5.68627 5.4113,8.98278 1.73263,5.51718 3.77338,11.45412 8.58937,15.05912 2.57362,1.90722 5.79217,2.90329 8.98977,2.85608 z"
       id="path2918" />
    <path
       id="path2920"
       d="m 50.544564,248.40866 c 5.019787,4.83215 13.100815,5.21177 19.141756,2.16954 4.685735,-1.76907 8.805212,-5.36789 14.000947,-5.53097 1.629026,0.26776 3.140226,1.15049 4.698555,1.72072 5.991681,2.6126 11.977668,5.37564 18.400838,6.76679 25.21674,6.01373 53.09593,-0.8527 72.64315,-17.87842 17.50509,-15.05722 27.78395,-37.8833 28.11745,-60.90794 0.39989,-19.48766 -6.81836,-38.8799 -19.39013,-53.714 -10.5694,-12.63422 -25.03533,-21.985724 -40.97515,-26.20461 -20.56435,-5.564291 -43.28077,-2.845522 -61.821216,7.70291 -18.673949,10.481 -32.766972,28.63415 -38.561319,49.2231 -4.409761,15.2273 -3.826683,31.68327 0.830506,46.77988 1.487929,5.01321 3.511693,9.84766 5.677661,14.59656 1.073622,3.58764 -0.968976,7.07263 -2.525417,10.17816 -2.676081,5.12639 -5.431104,10.76746 -4.574804,16.722 0.471216,3.16844 2.042746,6.14862 4.337173,8.37628 z"
       style="fill:#ffffff;fill-opacity:1;stroke:#000000;stroke-width:5.85636902;stroke-linecap:round;stroke-linejoin:round;stroke-miterlimit:4;stroke-dasharray:none;stroke-dashoffset:0;stroke-opacity:1;paint-order:markers fill stroke"
       inkscape:connector-curvature="0" />
    <path
       inkscape:connector-curvature="0"
       style="fill:#ffffff;fill-opacity:1;stroke:#000000;stroke-width:5.85636902;stroke-linecap:round;stroke-linejoin:round;stroke-miterlimit:4;stroke-dasharray:none;stroke-dashoffset:0;stroke-opacity:1;paint-order:markers fill stroke"
       d="m 19.825155,173.44225 c 0.13268,6.96637 5.578397,12.94896 12.001169,15.06937 4.564237,2.06239 10.021897,2.43055 13.811151,5.98917 0.962561,1.34123 1.406956,3.034 2.105647,4.53912 2.389372,6.08414 4.668339,12.27064 8.226515,17.7962 13.578578,22.08327 38.147442,36.94154 64.008413,38.72451 23.02503,1.7309 46.43376,-7.14132 62.95046,-23.18638 14.06262,-13.49709 22.67093,-32.31355 24.27064,-51.69243 1.46005,-16.40743 -2.15639,-33.24891 -10.44433,-47.50327 -10.60665,-18.47574 -28.59204,-32.61622 -49.161,-38.267389 -20.61566,-5.79329 -43.41715,-2.922347 -62.072957,7.538999 -13.885499,7.64915 -25.109329,19.69758 -32.491114,33.66562 -2.49275,4.597 -4.480205,9.44649 -6.306614,14.33604 -1.777679,3.29601 -5.686274,4.31594 -8.982785,5.41131 -5.517181,1.73263 -11.454115,3.77337 -15.059115,8.58936 -1.907225,2.57363 -2.903291,5.79217 -2.85608,8.98977 z"
       id="path2922" />
    <path
       id="path2924"
       d="m 50.084404,97.169788 c -4.832148,5.019782 -5.211775,13.100812 -2.169546,19.141762 1.769073,4.68573 5.367893,8.80521 5.530976,14.00094 -0.267759,1.62902 -1.150494,3.14023 -1.720725,4.69856 -2.612596,5.99167 -5.375639,11.97766 -6.766789,18.40083 -6.013726,25.21674 0.852701,53.09593 17.878419,72.64315 15.057224,17.50509 37.883301,27.78395 60.907941,28.11745 19.48766,0.39989 38.8799,-6.81836 53.714,-19.39013 12.63422,-10.5694 21.98574,-25.03533 26.20463,-40.97514 5.56429,-20.56436 2.84553,-43.28078 -7.70293,-61.82122 -10.481,-18.67395 -28.63415,-32.766974 -49.2231,-38.56131 -15.2273,-4.40977 -31.68327,-3.82669 -46.779875,0.8305 -5.01321,1.48793 -9.847661,3.511695 -14.596561,5.677653 -3.58764,1.073617 -7.072633,-0.968967 -10.178162,-2.525398 -5.12639,-2.676085 -10.767458,-5.431115 -16.721997,-4.574815 -3.168443,0.47122 -6.148619,2.04275 -8.376281,4.337168 z"
       style="fill:#ffffff;fill-opacity:1;stroke:#000000;stroke-width:5.85636902;stroke-linecap:round;stroke-linejoin:round;stroke-miterlimit:4;stroke-dasharray:none;stroke-dashoffset:0;stroke-opacity:1;paint-order:markers fill stroke"
       inkscape:connector-curvature="0" />
    <path
       style="fill:#ffffff;fill-opacity:1;stroke:#000000;stroke-width:7.34623098;stroke-linecap:round;stroke-linejoin:round;stroke-miterlimit:4;stroke-dasharray:none;stroke-dashoffset:0;stroke-opacity:1;paint-order:markers fill stroke"
       id="path2928"
       sodipodi:type="arc"
       sodipodi:cx="124.35155"
       sodipodi:cy="173.13336"
       sodipodi:rx="80.524307"
       sodipodi:ry="80.524307"
       sodipodi:start="1.1654646"
       sodipodi:end="1.1604869"
       sodipodi:open="true"
       d="M 156.10418,247.13292 A 80.524307,80.524307 0 0 1 50.391564,204.97806 80.524307,80.524307 0 0 1 92.414835,99.213064 80.524307,80.524307 0 0 1 198.23205,141.10469 80.524307,80.524307 0 0 1 156.47214,246.97395" />
    <path
       style="fill:#ffffff;fill-opacity:1;stroke:#000000;stroke-width:5.60039806;stroke-linecap:round;stroke-linejoin:round;stroke-miterlimit:4;stroke-dasharray:none;stroke-dashoffset:0;stroke-opacity:1;paint-order:markers fill stroke"
       id="path2930"
       sodipodi:type="arc"
       sodipodi:cx="124.03957"
       sodipodi:cy="173.0025"
       sodipodi:rx="28.978985"
       sodipodi:ry="28.978985"
       sodipodi:start="1.1654646"
       sodipodi:end="1.1604869"
       sodipodi:open="true"
       d="m 135.46667,199.63337 a 28.978985,28.978985 0 0 1 -38.043721,-15.17064 28.978985,28.978985 0 0 1 15.123281,-38.06257 28.978985,28.978985 0 0 1 38.08136,15.0759 28.978985,28.978985 0 0 1 -15.0285,38.1001" />
    <path
       style="fill:#ffffff;fill-opacity:1;stroke:#000000;stroke-width:5.71428585;stroke-linecap:round;stroke-linejoin:round;stroke-miterlimit:4;stroke-dasharray:none;stroke-dashoffset:0;stroke-opacity:1;paint-order:markers fill stroke"
       d="m 119.6712,198.66076 c -5.24097,-0.94563 -10.01601,-3.47272 -13.92061,-7.36719 -3.10746,-3.0994 -5.11749,-6.36242 -6.515805,-10.57754 -0.856382,-2.5815 -1.005215,-3.68728 -1.0175,-7.55953 -0.01553,-4.89545 0.443622,-7.06552 2.397825,-11.33281 3.04924,-6.65845 9.49791,-11.96982 17.02904,-14.02578 3.26476,-0.89126 9.50696,-0.88715 12.85118,0.008 3.07624,0.82384 7.5435,3.12413 10.01638,5.15765 6.76286,5.56129 10.45921,14.7692 9.29345,23.15074 -1.79163,12.88131 -11.88712,22.21886 -24.59319,22.7468 -1.97949,0.0822 -4.47284,-0.008 -5.54077,-0.2008 z"
       id="path2932"
       inkscape:connector-curvature="0" />
  </g>
</svg>
