<?xml version="1.0" standalone="no"?>
<!DOCTYPE svg PUBLIC "-//W3C//DTD SVG 20010904//EN"
 "http://www.w3.org/TR/2001/REC-SVG-20010904/DTD/svg10.dtd">
<svg version="1.0" xmlns="http://www.w3.org/2000/svg"
 width="429.000000pt" height="429.000000pt" viewBox="0 0 429.000000 429.000000"
 preserveAspectRatio="xMidYMid meet">
<metadata>
Created by potrace 1.11, written by Peter Selinger 2001-2013
</metadata>
<g transform="translate(0.000000,429.000000) scale(0.100000,-0.100000)"
fill="#000000" stroke="none">
<path d="M2010 3629 c-155 -16 -274 -50 -406 -117 -230 -117 -445 -337 -557
-572 -35 -75 -72 -174 -80 -221 -3 -13 -8 -35 -11 -49 -3 -14 -8 -45 -11 -70
-7 -56 -8 -1707 -1 -1718 3 -5 7 -22 10 -38 11 -58 70 -157 134 -220 112 -112
204 -150 374 -153 162 -3 255 33 363 142 71 71 113 141 131 218 4 19 9 37 10
42 1 4 2 85 3 180 l1 172 172 -2 c235 -3 353 21 534 108 123 58 224 131 327
233 109 109 159 177 225 306 98 190 126 311 126 545 0 204 -21 329 -78 466 -8
19 -15 39 -16 44 -1 6 -8 17 -15 25 -7 8 -18 28 -24 44 -29 74 -133 209 -246
319 -139 135 -363 258 -530 292 -22 5 -42 9 -45 10 -52 15 -290 24 -390 14z
m227 -1071 c64 -38 95 -121 68 -184 -21 -51 -42 -73 -90 -95 -52 -24 -87 -24
-135 1 -124 63 -130 216 -10 280 60 32 111 32 167 -2z"/>
</g>
</svg>
